<svg width="31" height="22" viewBox="0 0 31 22" fill="none" xmlns="http://www.w3.org/2000/svg">
<path d="M16.5319 10.4814H13.4081V7.6743H16.5319V10.4814ZM16.5319 0.826561H13.4081V3.69514H16.5319V0.826561ZM20.2275 7.66957H17.1037V10.4767H20.2275V7.66957ZM12.841 4.26224H9.71725V7.10247H12.841V4.26224ZM16.5319 4.26224H13.4081V7.10247H16.5319V4.26224ZM29.613 8.98808C28.9325 8.52967 27.3635 8.36427 26.1584 8.59111C26.0025 7.45691 25.3692 6.46921 24.2161 5.58075L23.5545 5.14125L23.115 5.80287C22.2454 7.11665 22.0091 9.28108 22.9401 10.7083C22.529 10.9304 21.7209 11.2329 20.6528 11.214H0.109621C-0.301527 13.6147 0.383719 16.7337 2.18899 18.8745C3.94227 20.9492 6.56984 22.003 10.0055 22.003C17.444 22.003 22.9496 18.5768 25.5252 12.3529C26.5365 12.3718 28.7198 12.3576 29.8399 10.2168C29.9107 10.0987 30.1518 9.59299 30.2416 9.40868L29.613 8.98808ZM5.45927 7.66957H2.34022V10.4767H5.46399V7.66957H5.45927ZM9.15015 7.66957H6.02637V10.4767H9.15015V7.66957ZM12.841 7.66957H9.71725V10.4767H12.841V7.66957ZM9.15015 4.26224H6.02637V7.10247H9.15015V4.26224Z" fill="black"/>
</svg>
