<svg width="20" height="19" viewBox="0 0 20 19" fill="none" xmlns="http://www.w3.org/2000/svg">
<path d="M7.09428 14.9424C7.09428 15.0181 7.00729 15.0787 6.8976 15.0787C6.77278 15.0901 6.68579 15.0295 6.68579 14.9424C6.68579 14.8666 6.77278 14.806 6.88247 14.806C6.99594 14.7947 7.09428 14.8553 7.09428 14.9424ZM5.91797 14.772C5.89149 14.8477 5.96714 14.9348 6.08061 14.9575C6.17895 14.9954 6.29242 14.9575 6.31511 14.8818C6.33781 14.806 6.26594 14.7189 6.15247 14.6849C6.05413 14.6583 5.94444 14.6962 5.91797 14.772ZM7.58977 14.7076C7.48008 14.7341 7.40444 14.806 7.41578 14.8931C7.42713 14.9689 7.52547 15.0181 7.63894 14.9916C7.74863 14.9651 7.82428 14.8931 7.81293 14.8174C7.80158 14.7454 7.69946 14.6962 7.58977 14.7076ZM10.0786 0.196075C4.83243 0.196075 0.819336 4.18371 0.819336 9.43618C0.819336 13.6359 3.45943 17.2297 7.23045 18.4945C7.71459 18.5816 7.8848 18.2824 7.8848 18.0363C7.8848 17.8015 7.87345 16.5064 7.87345 15.7111C7.87345 15.7111 5.22579 16.2792 4.66979 14.5826C4.66979 14.5826 4.2386 13.4806 3.61829 13.1966C3.61829 13.1966 2.75213 12.602 3.67881 12.6134C3.67881 12.6134 4.62061 12.6891 5.1388 13.5904C5.96714 15.0522 7.35527 14.6318 7.89614 14.3819C7.98314 13.776 8.22899 13.3556 8.50132 13.1057C6.38698 12.8709 4.25372 12.5642 4.25372 8.92115C4.25372 7.87975 4.54118 7.35715 5.14636 6.69065C5.04802 6.4445 4.72652 5.42961 5.2447 4.11933C6.03522 3.87318 7.85454 5.1418 7.85454 5.1418C8.61101 4.92973 9.42422 4.81991 10.2299 4.81991C11.0355 4.81991 11.8487 4.92973 12.6052 5.1418C12.6052 5.1418 14.4245 3.86939 15.215 4.11933C15.7332 5.43339 15.4117 6.4445 15.3134 6.69065C15.9185 7.36094 16.2892 7.88354 16.2892 8.92115C16.2892 12.5755 14.0614 12.8671 11.9471 13.1057C12.295 13.4049 12.5901 13.9729 12.5901 14.8628C12.5901 16.139 12.5787 17.7182 12.5787 18.0287C12.5787 18.2749 12.7527 18.574 13.2331 18.4869C17.0154 17.2297 19.5799 13.6359 19.5799 9.43618C19.5799 4.18371 15.3247 0.196075 10.0786 0.196075ZM4.4958 13.2572C4.44663 13.2951 4.45797 13.3822 4.52227 13.4541C4.58279 13.5147 4.66978 13.5412 4.71896 13.492C4.76813 13.4541 4.75678 13.367 4.69248 13.2951C4.63196 13.2345 4.54497 13.208 4.4958 13.2572ZM4.0873 12.9504C4.06082 12.9997 4.09865 13.0603 4.17429 13.0981C4.23481 13.136 4.31046 13.1246 4.33694 13.0716C4.36341 13.0224 4.32559 12.9618 4.24994 12.9239C4.17429 12.9012 4.11378 12.9126 4.0873 12.9504ZM5.31279 14.2986C5.25227 14.3478 5.27496 14.4614 5.36196 14.5334C5.44895 14.6205 5.55864 14.6318 5.60781 14.5712C5.65698 14.522 5.63429 14.4084 5.55864 14.3365C5.47543 14.2494 5.36196 14.238 5.31279 14.2986ZM4.8816 13.7419C4.82108 13.7798 4.82108 13.8782 4.8816 13.9653C4.94212 14.0524 5.04424 14.0903 5.09341 14.0524C5.15393 14.0032 5.15393 13.9048 5.09341 13.8177C5.04046 13.7306 4.94212 13.6927 4.8816 13.7419Z" fill="black"/>
</svg>
