<svg width="20" height="19" viewBox="0 0 20 19" fill="none" xmlns="http://www.w3.org/2000/svg">
<path d="M4.64544 18.3171H0.544053V6.3474H4.64544V18.3171ZM2.59254 4.71463C1.28105 4.71463 0.217285 3.73016 0.217285 2.5416C0.217285 1.97069 0.467534 1.42316 0.912981 1.01947C1.35843 0.61577 1.96258 0.388977 2.59254 0.388977C3.22249 0.388977 3.82665 0.61577 4.27209 1.01947C4.71754 1.42316 4.96779 1.97069 4.96779 2.5416C4.96779 3.73016 3.90359 4.71463 2.59254 4.71463ZM19.9956 18.3171H15.903V12.4903C15.903 11.1017 15.8721 9.32081 13.7707 9.32081C11.6383 9.32081 11.3115 10.8295 11.3115 12.3903V18.3171H7.21454V12.3322V6.3474H11.1481V7.98018H11.2055C11.7531 7.03973 13.0906 6.04726 15.0861 6.04726C19.237 6.04726 20 8.52444 20 11.742V18.3171H19.9956Z" fill="black"/>
</svg>
