<svg width="22" height="22" viewBox="0 0 22 22" fill="none" xmlns="http://www.w3.org/2000/svg">
<g clip-path="url(#clip0_529_218)">
<path fill-rule="evenodd" clip-rule="evenodd" d="M7.59587 12.7384L10.5931 14.7479L13.4823 12.7934L19.9587 19.0589C19.7882 19.1129 19.6061 19.142 19.4165 19.142H1.76552C1.53252 19.142 1.31011 19.0973 1.1057 19.0173L7.59587 12.7384ZM21.182 7.5893V17.4107C21.182 17.6672 21.1248 17.9103 21.0231 18.1294L14.6749 11.9875L21.182 7.5893ZM9.99369e-07 7.64434L6.39909 11.9356L0.112266 18.0193C0.0378064 17.8247 -0.000224776 17.6186 9.99369e-07 17.4107V7.64434ZM19.4165 3.56393C20.3909 3.56393 21.182 4.33868 21.182 5.29517V5.90375L10.5889 13.0645L9.99369e-07 5.96295V5.29517C9.99369e-07 4.33972 0.79009 3.56393 1.76552 3.56393H19.4165Z" fill="black"/>
</g>
<defs>
<clipPath id="clip0_529_218">
<rect width="21.182" height="20.7707" fill="white" transform="translate(0 0.967651)"/>
</clipPath>
</defs>
</svg>
