<svg width="58" height="13" viewBox="0 0 58 13" fill="none" xmlns="http://www.w3.org/2000/svg">
<g clip-path="url(#clip0_529_253)">
<path d="M38.884 0.732269H48.8165V2.56555H44.8764V12.2102H42.9062V2.56555H38.884V0.732269Z" fill="black"/>
<path d="M22.5489 0.732269V2.56555H14.5874V5.51473H20.99V7.34801H14.5874V10.3769H22.5489V12.2102H12.6173V2.56555H12.6165V0.732269H22.5489Z" fill="black"/>
<path d="M27.5084 0.737091H24.9302L34.1648 12.215H36.7505L32.1326 6.48L36.7432 0.745848L34.1648 0.749832L30.8418 4.87687L27.5084 0.737091Z" fill="black"/>
<path d="M30.1541 8.9358L28.863 7.33047L24.9229 12.2237H27.5084L30.1541 8.9358Z" fill="black"/>
<path fill-rule="evenodd" clip-rule="evenodd" d="M12.6862 12.21L3.43915 0.727249H0.976562V12.2052H2.94664V3.18065L10.2113 12.21H12.6862Z" fill="black"/>
<path d="M49.2594 12.1401C49.1151 12.1401 48.9923 12.0901 48.8896 11.9901C48.7868 11.8902 48.736 11.7692 48.7373 11.6258C48.736 11.4864 48.7868 11.3666 48.8896 11.2667C48.9923 11.1667 49.1151 11.1167 49.2594 11.1167C49.3982 11.1167 49.5196 11.1667 49.6223 11.2667C49.7266 11.3666 49.7785 11.4864 49.78 11.6258C49.7785 11.7205 49.7545 11.8073 49.7064 11.8849C49.6571 11.9638 49.5944 12.0257 49.5155 12.0704C49.4381 12.1164 49.3527 12.1401 49.2594 12.1401Z" fill="black"/>
<path d="M52.6219 7.30481H53.4949V10.6682C53.4936 10.9773 53.4268 11.2417 53.2961 11.464C53.1639 11.6863 52.981 11.856 52.7461 11.9757C52.5125 12.0941 52.2388 12.1546 51.9278 12.1546C51.6434 12.1546 51.3885 12.1033 51.1616 12.0033C50.9347 11.9034 50.7545 11.7534 50.6223 11.5561C50.4888 11.3588 50.4233 11.1128 50.4233 10.8182H51.2978C51.2991 10.9471 51.3285 11.0589 51.3845 11.1523C51.4405 11.2457 51.5179 11.3167 51.6168 11.3667C51.7168 11.4167 51.8317 11.4417 51.9611 11.4417C52.1013 11.4417 52.2215 11.4127 52.3189 11.3535C52.4163 11.2956 52.4911 11.2088 52.5432 11.0931C52.5939 10.9787 52.6206 10.8366 52.6219 10.6682V7.30481Z" fill="black"/>
<path d="M57.0869 8.62009C57.0657 8.41621 56.9722 8.25705 56.8094 8.14393C56.6451 8.02949 56.4329 7.97293 56.1725 7.97293C55.9897 7.97293 55.8323 8.00056 55.7015 8.05448C55.5706 8.10973 55.4692 8.18338 55.3997 8.27678C55.3304 8.37017 55.2956 8.47672 55.2929 8.59642C55.2929 8.69639 55.3169 8.7832 55.3636 8.85555C55.4104 8.9292 55.4731 8.99103 55.5545 9.04102C55.6346 9.09231 55.724 9.1344 55.8216 9.1686C55.9203 9.2028 56.0191 9.23174 56.1178 9.25542L56.573 9.36723C56.756 9.40931 56.9335 9.46589 57.103 9.53822C57.2725 9.60926 57.426 9.70002 57.5608 9.80919C57.6957 9.91837 57.8025 10.0499 57.8812 10.2038C57.96 10.3577 58 10.5379 58 10.7457C58 11.0259 57.928 11.2719 57.7824 11.485C57.6369 11.6967 57.4273 11.8625 57.1524 11.9822C56.8787 12.1006 56.5477 12.1611 56.1579 12.1611C55.7815 12.1611 55.4531 12.1032 55.1768 11.9875C54.8992 11.873 54.6828 11.7046 54.5267 11.4836C54.3705 11.2627 54.2864 10.993 54.2744 10.676H55.1395C55.1515 10.8417 55.2049 10.9799 55.2956 11.0917C55.3877 11.2022 55.5078 11.2837 55.6547 11.339C55.8029 11.3929 55.9683 11.4205 56.1513 11.4205C56.3422 11.4205 56.5103 11.3916 56.6558 11.335C56.7999 11.2785 56.9134 11.1995 56.9949 11.0969C57.0777 10.9957 57.1191 10.876 57.1204 10.7392C57.1191 10.6142 57.0816 10.5103 57.0095 10.4287C56.9361 10.3472 56.8347 10.2788 56.7051 10.2235C56.5745 10.1683 56.4222 10.1183 56.2487 10.0749L55.6961 9.93546C55.2969 9.83418 54.9805 9.68029 54.7496 9.47378C54.5174 9.26726 54.4025 8.99366 54.4025 8.65035C54.4025 8.36887 54.4799 8.12158 54.6362 7.9098C54.791 7.69803 55.0033 7.5336 55.2716 7.41653C55.5412 7.29816 55.8456 7.24026 56.1846 7.24026C56.529 7.24026 56.8306 7.29816 57.091 7.41653C57.3512 7.5336 57.5556 7.69671 57.7036 7.90453C57.8518 8.11236 57.9293 8.35044 57.9333 8.62009H57.0869Z" fill="black"/>
</g>
<defs>
<clipPath id="clip0_529_253">
<rect width="57.0235" height="11.4383" fill="white" transform="translate(0.976562 0.725052)"/>
</clipPath>
</defs>
</svg>
