<svg width="35" height="22" viewBox="0 0 35 22" fill="none" xmlns="http://www.w3.org/2000/svg">
<path d="M17.323 21.3854C17.2096 21.3854 17.0961 21.353 16.9935 21.299L15.9562 20.6831C15.7996 20.5967 15.8752 20.5642 15.9292 20.548C16.1345 20.4778 16.1777 20.4616 16.3992 20.3319C16.4208 20.3211 16.4532 20.3265 16.4748 20.3373L17.2744 20.8128C17.3014 20.829 17.3446 20.829 17.3716 20.8128L20.4942 19.0084C20.5212 18.9922 20.5428 18.9597 20.5428 18.9219V15.3186C20.5428 15.2807 20.5266 15.2483 20.4942 15.2321L17.3716 13.4331C17.3446 13.4169 17.3068 13.4169 17.2744 13.4331L14.1518 15.2321C14.1194 15.2483 14.1032 15.2861 14.1032 15.3186V18.9219C14.1032 18.9543 14.1248 18.9868 14.1518 19.003L15.0054 19.4946C15.47 19.7269 15.7563 19.4514 15.7563 19.1812V15.6211C15.7563 15.5725 15.7942 15.5292 15.8482 15.5292H16.2425C16.2912 15.5292 16.3344 15.5671 16.3344 15.6211V19.1812C16.3344 19.8025 15.9994 20.1537 15.4106 20.1537C15.2323 20.1537 15.0864 20.1537 14.6921 19.9592L13.8709 19.4892C13.671 19.3703 13.5414 19.1542 13.5414 18.9219V15.3186C13.5414 15.0862 13.6656 14.8648 13.8709 14.7513L16.9935 12.9469C17.1934 12.8335 17.4527 12.8335 17.6472 12.9469L20.7697 14.7513C20.9696 14.8702 21.0993 15.0862 21.0993 15.3186V18.9219C21.0993 19.1542 20.975 19.3757 20.7697 19.4892L17.6472 21.2936C17.5553 21.353 17.4419 21.3854 17.323 21.3854ZM19.8459 17.8306C19.8459 17.1554 19.3921 16.9771 18.4305 16.8474C17.4581 16.7178 17.3608 16.6529 17.3608 16.426C17.3608 16.237 17.4419 15.9884 18.1604 15.9884C18.8033 15.9884 19.041 16.1289 19.1382 16.5611C19.149 16.6043 19.1814 16.6313 19.2247 16.6313H19.6298C19.6568 16.6313 19.6784 16.6205 19.6947 16.6043C19.7109 16.5827 19.7217 16.5611 19.7163 16.5341C19.6514 15.7886 19.1598 15.4428 18.1604 15.4428C17.269 15.4428 16.7396 15.821 16.7396 16.4476C16.7396 17.1337 17.269 17.3174 18.1226 17.4039C19.1436 17.5065 19.2247 17.6524 19.2247 17.8523C19.2247 18.2034 18.9437 18.3493 18.2846 18.3493C17.4581 18.3493 17.2744 18.144 17.215 17.7334C17.2096 17.6902 17.1718 17.6578 17.1231 17.6578H16.718C16.6693 17.6578 16.6261 17.6956 16.6261 17.7496C16.6261 18.2736 16.9124 18.9003 18.2792 18.9003C19.2787 18.9003 19.8459 18.5113 19.8459 17.8306ZM22.7902 15.1241C22.7902 15.4536 22.5201 15.7237 22.1905 15.7237C21.861 15.7237 21.5909 15.4536 21.5909 15.1241C21.5909 14.7837 21.8718 14.5244 22.1905 14.5244C22.5147 14.519 22.7902 14.7837 22.7902 15.1241ZM22.693 15.1241C22.693 14.8431 22.4661 14.6216 22.1851 14.6216C21.9096 14.6216 21.6827 14.8431 21.6827 15.1241C21.6827 15.405 21.9096 15.6319 22.1851 15.6319C22.4661 15.6265 22.693 15.3996 22.693 15.1241ZM22.4499 15.459H22.3094C22.304 15.4266 22.2824 15.2537 22.2824 15.2483C22.2716 15.2105 22.2608 15.1889 22.2122 15.1889H22.0933V15.459H21.9636V14.7837H22.1959C22.277 14.7837 22.4337 14.7837 22.4337 14.962C22.4337 15.0862 22.3526 15.1133 22.304 15.1295C22.3958 15.1349 22.4012 15.1943 22.4174 15.2807C22.4228 15.3348 22.4337 15.4266 22.4499 15.459ZM22.2986 14.9836C22.2986 14.8918 22.2338 14.8918 22.2014 14.8918H22.0933V15.0808H22.1959C22.2824 15.0808 22.2986 15.0214 22.2986 14.9836ZM7.65279 7.28524C7.65279 7.13938 7.57716 7.00972 7.45291 6.93949L4.14126 5.03245C4.08724 5.00004 4.02241 4.98383 3.95758 4.97843H3.92516C3.86034 4.97843 3.80091 5.00004 3.74148 5.03245L0.435239 6.93949C0.310985 7.00972 0.235352 7.14478 0.235352 7.28524L0.240754 12.4175C0.240754 12.4877 0.27857 12.5525 0.337996 12.5904C0.397422 12.6282 0.473055 12.6282 0.537884 12.5904L2.50434 11.4613C2.6286 11.3856 2.70423 11.256 2.70423 11.1155V8.71687C2.70423 8.5764 2.77986 8.44135 2.90412 8.37111L3.74148 7.8903C3.80631 7.85249 3.87114 7.83628 3.94137 7.83628C4.0116 7.83628 4.08183 7.85249 4.14126 7.8903L4.97862 8.37111C5.10288 8.44135 5.17851 8.5764 5.17851 8.71687V11.1155C5.17851 11.256 5.25415 11.391 5.3784 11.4613L7.34486 12.5904C7.40429 12.6282 7.48532 12.6282 7.54475 12.5904C7.60417 12.5579 7.64199 12.4877 7.64199 12.4175L7.65279 7.28524ZM25.7615 1.68299V11.2128C25.7615 11.3532 25.6859 11.4883 25.5616 11.5585L22.25 13.4709C22.1257 13.5412 21.9745 13.5412 21.8502 13.4709L18.5386 11.5585C18.4143 11.4883 18.3387 11.3532 18.3387 11.2128V7.38788C18.3387 7.24742 18.4143 7.11236 18.5386 7.04213L21.8502 5.1297C21.9745 5.05947 22.1257 5.05947 22.25 5.1297L23.0765 5.6051C23.1684 5.65913 23.2872 5.5889 23.2872 5.48625V0.408034C23.2872 0.256768 23.4493 0.159525 23.5844 0.235158L25.5562 1.33724C25.6805 1.40207 25.7615 1.53713 25.7615 1.68299ZM23.2764 8.64663C23.2764 8.60882 23.2548 8.5764 23.2278 8.5602L22.0933 7.90111C22.0609 7.8849 22.0231 7.8849 21.9907 7.90111L20.8562 8.5602C20.8238 8.5764 20.8075 8.60882 20.8075 8.64663V9.95941C20.8075 9.99722 20.8292 10.0296 20.8562 10.0458L21.9907 10.6995C22.0231 10.7157 22.0609 10.7157 22.0879 10.6995L23.2224 10.0458C23.2548 10.0296 23.271 9.99722 23.271 9.95941V8.64663H23.2764ZM34.6106 8.60882C34.7348 8.53859 34.8105 8.40353 34.8105 8.26307V7.33926C34.8105 7.1988 34.7348 7.06374 34.6106 6.99351L31.3205 5.08108C31.1963 5.01085 31.045 5.01085 30.9208 5.08108L27.6091 6.99351C27.4849 7.06374 27.4092 7.1988 27.4092 7.33926V11.1641C27.4092 11.31 27.4849 11.4397 27.6091 11.5099L30.8992 13.3845C31.018 13.4547 31.1693 13.4547 31.2935 13.3845L33.2816 12.277C33.4167 12.2014 33.4167 12.0069 33.2816 11.9313L29.9483 10.0188C29.8835 9.98102 29.8457 9.91619 29.8457 9.84596V8.64663C29.8457 8.5764 29.8835 8.51158 29.9483 8.47376L30.9856 7.8741C31.045 7.83628 31.1261 7.83628 31.1855 7.8741L32.2227 8.47376C32.2822 8.51158 32.3254 8.5764 32.3254 8.64663V9.58665C32.3254 9.73791 32.4928 9.83515 32.6279 9.75952L34.6106 8.60882ZM30.4346 8.7979C30.4129 8.81411 30.3967 8.83572 30.3967 8.86273V9.59745C30.3967 9.62446 30.4129 9.65147 30.4346 9.66228L31.072 10.0296C31.0936 10.0458 31.1261 10.0458 31.1477 10.0296L31.7851 9.66228C31.8068 9.64607 31.823 9.62446 31.823 9.59745V8.86273C31.823 8.83572 31.8068 8.80871 31.7851 8.7979L31.1477 8.43054C31.1261 8.41433 31.0936 8.41433 31.072 8.43054L30.4346 8.7979ZM16.7017 11.1479V7.34467C16.7017 7.2042 16.6153 7.06914 16.4911 6.99891L13.1902 5.09728C13.0768 5.03245 12.9201 5.02165 12.7904 5.09728L9.4896 6.99891C9.36534 7.06914 9.2789 7.1988 9.2789 7.34467V11.1479C9.2789 11.2992 9.38155 11.4289 9.495 11.4937L12.8012 13.3953C12.9309 13.4709 13.0822 13.4655 13.201 13.3953L16.4965 11.4937C16.5937 11.4397 16.6639 11.3478 16.6909 11.2398C16.6963 11.2128 16.7017 11.1803 16.7017 11.1479ZM12.6878 4.40038L12.6446 4.42739H12.704L12.6878 4.40038ZM16.8044 11.4343L16.7828 11.3964V11.4451L16.8044 11.4343Z" fill="black"/>
</svg>
