<svg width="47" height="12" viewBox="0 0 47 12" fill="none" xmlns="http://www.w3.org/2000/svg">
<g clip-path="url(#clip0_529_264)">
<path d="M10.3675 11.3348H16.6743C16.8747 11.3348 17.0714 11.2825 17.2449 11.1833C17.4181 11.0843 17.5621 10.9415 17.6626 10.7692C17.7626 10.5975 17.8153 10.4024 17.8153 10.2037C17.8151 10.005 17.7623 9.80985 17.6621 9.63825L13.4266 2.36722C13.3261 2.19498 13.1821 2.05221 13.009 1.95326C12.8353 1.85393 12.6386 1.80171 12.4385 1.80176C12.2383 1.80176 12.0415 1.85407 11.8681 1.95332C11.6949 2.05225 11.5509 2.19503 11.4505 2.36728L10.3675 4.22762L8.25003 0.589731C8.14953 0.417463 8.00545 0.27469 7.83228 0.175769C7.65852 0.0764708 7.46185 0.0242664 7.26172 0.0243226C7.06142 0.0243226 6.86461 0.0765768 6.69111 0.175826C6.51795 0.274742 6.37387 0.417492 6.27336 0.589731L1.00281 9.6382C0.902599 9.8098 0.849732 10.0049 0.84961 10.2037C0.849496 10.4022 0.902203 10.5973 1.0023 10.7692C1.10277 10.9415 1.2468 11.0843 1.41994 11.1833C1.5937 11.2826 1.7904 11.3348 1.99055 11.3348H5.94943C7.51802 11.3348 8.67479 10.6519 9.47071 9.31964L11.4032 6.00274L12.4382 4.22762L15.5446 9.55964H11.4032L10.3675 11.3348ZM5.8849 9.55783L3.1221 9.55721L7.26353 2.44826L9.33001 6.00274L7.9464 8.3785C7.41781 9.2429 6.81734 9.55783 5.8849 9.55783ZM22.1698 11.3348C22.2298 11.3348 22.2873 11.3109 22.3297 11.2685C22.3722 11.2261 22.396 11.1685 22.396 11.1086V5.8492C22.396 5.8492 22.6926 6.31779 23.2443 7.263L25.4332 11.0498C25.5344 11.2262 25.7208 11.3348 25.9224 11.3348H27.4291V2.85193H25.9022C25.8422 2.85193 25.7847 2.87576 25.7423 2.91819C25.6999 2.96061 25.676 3.01815 25.676 3.07814V8.39405L24.7146 6.69748L22.6455 3.13582C22.5442 2.96006 22.3582 2.85193 22.1569 2.85193H20.6429V11.3348H22.1698ZM39.0904 8.15975L41.0328 5.22712H39.5777C39.4841 5.22729 39.392 5.25076 39.3098 5.2954C39.2275 5.34005 39.1576 5.40447 39.1065 5.48285L38.2169 6.83886L37.3272 5.48285C37.2761 5.40447 37.2062 5.34005 37.124 5.2954C37.0417 5.25076 36.9496 5.22729 36.856 5.22712H35.4124L37.3548 8.14765L35.263 11.3348H36.6749C36.7677 11.3346 36.8591 11.3115 36.9409 11.2675C37.0227 11.2235 37.0923 11.16 37.1437 11.0827L38.2283 9.45644L39.3018 11.0806C39.353 11.1586 39.4227 11.2226 39.5048 11.2669C39.5868 11.3113 39.6786 11.3346 39.7719 11.3348H41.1708L39.0904 8.15975ZM41.8272 5.22712H42.9421V3.42147H44.5397V5.22712H46.0914V6.63284H44.5397V9.0444C44.5397 9.6382 44.8386 9.91694 45.3558 9.91694H46.0914V11.3348H45.1374C43.8041 11.3348 42.9421 10.5349 42.9421 9.11712V6.63284H41.8272V5.22712ZM34.2154 5.22712H33.3671C33.1698 5.22712 33.0155 5.23532 32.8864 5.36981C32.7574 5.49682 32.6885 5.59839 32.6885 5.79265V8.73336C32.6885 9.18911 32.6672 9.41408 32.4623 9.6382C32.2573 9.85485 32.0314 9.92096 31.614 9.92096C31.2042 9.92096 30.9707 9.85485 30.7657 9.6382C30.5608 9.41408 30.5395 9.18911 30.5395 8.73336V5.79265C30.5395 5.59839 30.4706 5.49688 30.3416 5.36981C30.2125 5.23532 30.0582 5.22712 29.8609 5.22712H29.0126V8.75723C29.0126 9.54918 29.2327 10.1767 29.6729 10.64C30.1207 11.1032 30.7715 11.3348 31.614 11.3348C32.4565 11.3348 33.0959 11.1032 33.5437 10.64C33.9915 10.1767 34.2154 9.54918 34.2154 8.75723V5.22712Z" fill="black"/>
</g>
<defs>
<clipPath id="clip0_529_264">
<rect width="46.6556" height="11.3104" fill="white" transform="translate(0.142822 0.0242996)"/>
</clipPath>
</defs>
</svg>
