<svg width="73" height="36" viewBox="0 0 73 36" fill="none" xmlns="http://www.w3.org/2000/svg">
<path d="M4.93791 35.9925C4.24881 36.0035 3.56669 35.8522 2.94585 35.5506C2.36152 35.2635 1.83906 34.8631 1.40833 34.3724C0.978112 33.8771 0.641748 33.3065 0.415953 32.6889C0.182294 32.0688 0.0629287 31.4109 0.0637254 30.7476C0.0628352 30.0782 0.187293 29.4146 0.430568 28.7917C0.664491 28.1786 1.01165 27.6159 1.45363 27.1332C1.89562 26.6543 2.4251 26.2657 3.01308 25.9888C3.63224 25.6992 4.30797 25.5533 4.99052 25.5617C5.67979 25.5524 6.3616 25.7063 6.98112 26.0109C7.56711 26.2999 8.09024 26.7034 8.5201 27.198C8.94696 27.693 9.28033 28.2626 9.5037 28.8786C9.73233 29.4948 9.84964 30.1472 9.85009 30.8051C9.85154 31.4722 9.72704 32.1335 9.48324 32.7537C9.24765 33.3621 8.90392 33.9221 8.46895 34.4062C8.03112 34.8886 7.50383 35.2799 6.91681 35.558C6.29772 35.8502 5.62148 35.9986 4.93791 35.9925ZM2.91077 30.7771C2.90923 31.1162 2.94998 31.4542 3.03208 31.7831C3.10692 32.0915 3.23613 32.3838 3.41354 32.6462C3.58305 32.8938 3.80397 33.1014 4.06099 33.2544C4.33599 33.4132 4.64883 33.4932 4.96568 33.4857C5.28866 33.4942 5.60758 33.4115 5.88643 33.2471C6.14137 33.0908 6.35736 32.8776 6.51781 32.6241C6.68639 32.3541 6.80983 32.058 6.88319 31.7477C6.96489 31.4207 7.00613 31.0848 7.00596 30.7476C7.00742 30.4075 6.96367 30.0686 6.87589 29.7402C6.79772 29.436 6.66925 29.1472 6.49589 28.8859C6.32916 28.6436 6.11035 28.4422 5.85574 28.2968C5.57888 28.142 5.26614 28.0642 4.9496 28.0714C4.62904 28.0604 4.31176 28.1394 4.03322 28.2997C3.77896 28.4543 3.56263 28.6648 3.40038 28.9154C3.22797 29.1817 3.10147 29.4755 3.02623 29.7844C2.94673 30.1091 2.90794 30.4426 2.91077 30.7771Z" fill="#313131"/>
<path d="M16.6535 33.4857C16.9464 33.4944 17.2357 33.4194 17.488 33.2692C17.7166 33.1251 17.9083 32.9288 18.0478 32.6963C18.1985 32.4432 18.3057 32.1664 18.3649 31.8773C18.432 31.5583 18.4653 31.2329 18.4643 30.9067V25.6191H21.269V30.9067C21.2735 31.5856 21.1815 32.2617 20.9957 32.9142C20.8295 33.5087 20.5401 34.061 20.1465 34.5344C19.7519 34.9973 19.2582 35.364 18.7025 35.6066C18.0554 35.8807 17.3582 36.0141 16.6564 35.9984C15.9341 36.0171 15.2167 35.8737 14.5562 35.5787C14.0017 35.3243 13.5122 34.9454 13.1253 34.4711C12.7448 33.9933 12.4657 33.4419 12.3054 32.8509C12.1301 32.2166 12.043 31.5608 12.0467 30.9023V25.6191H14.8514V30.9067C14.8499 31.2354 14.8832 31.5632 14.9508 31.8847C15.0092 32.1763 15.1165 32.4557 15.2679 32.711C15.4046 32.9409 15.5941 33.1344 15.8204 33.2751C16.0725 33.4238 16.3615 33.4968 16.6535 33.4857Z" fill="#313131"/>
<path d="M31.9646 28.0818H29.0255V35.9056H26.2282V28.0818H23.2817V25.6191H31.9646V28.0818Z" fill="#313131"/>
<path d="M34.1406 35.9056V25.6191H36.9438V29.8212L40.3375 25.6191H43.2021L39.4971 30.2292L43.4651 35.9086H40.5319L37.8441 31.8052L36.938 32.848V35.9056H34.1406Z" fill="#313131"/>
<path d="M52.4642 33.443V35.9056H45.1902V25.6191H52.3356V28.0818H47.9934V29.5311H51.7027V31.8199H47.9934V33.4401L52.4642 33.443Z" fill="#313131"/>
<path d="M54.9226 35.9054V25.6189H59.3218C59.7992 25.6146 60.2713 25.7209 60.7015 25.9297C61.1109 26.129 61.4793 26.4043 61.7874 26.7412C62.09 27.0772 62.331 27.4647 62.4991 27.8856C62.6679 28.2972 62.7557 28.7379 62.7578 29.1832C62.7549 30.0925 62.4252 30.97 61.8298 31.6532C61.5333 31.9892 61.1717 32.2603 60.7672 32.45C60.3366 32.6497 59.8674 32.7503 59.3934 32.7446H57.7258V35.9024L54.9226 35.9054ZM57.7258 30.2835H59.2063C59.2988 30.2801 59.3896 30.257 59.4727 30.2159C59.5558 30.1748 59.6294 30.1165 59.6886 30.0449C59.8358 29.8858 59.9098 29.5986 59.9108 29.1832C59.9108 28.7576 59.8246 28.4689 59.6521 28.3142C59.5144 28.1745 59.3299 28.0915 59.1347 28.0815H57.7258V30.2835Z" fill="#313131"/>
<path d="M72.9361 28.0818H70.0028V35.9056H67.1996V28.0818H64.2488V25.6191H72.9317L72.9361 28.0818Z" fill="#313131"/>
<path d="M17.4257 7.3437H33.0684V0H11.467V21.7689H33.0684V14.4252H17.4257V7.3437Z" fill="#313131"/>
<path d="M48.7123 7.34375H33.0681V14.4253H48.7123V7.34375Z" fill="#313131"/>
</svg>
