<svg width="22" height="22" viewBox="0 0 22 22" fill="none" xmlns="http://www.w3.org/2000/svg">
<g clip-path="url(#clip0_539_161)">
<path d="M20.7761 12.7132C20.6529 12.3403 20.3304 12.0806 19.9133 12.0183C19.7166 11.9889 19.4914 12.0014 19.2248 12.0564C18.7602 12.1522 18.4155 12.1887 18.164 12.1958C19.1135 10.5927 19.8855 8.76462 20.33 7.04379C21.0487 4.26125 20.6647 2.99363 20.2159 2.42026C19.0281 0.902612 17.2953 0.0873181 15.2047 0.0623716C14.0895 0.0487352 13.1105 0.268922 12.5998 0.427265C12.1243 0.343361 11.613 0.296516 11.0765 0.287853C10.0709 0.27181 9.18235 0.491035 8.42313 0.941596C8.00281 0.799457 7.32821 0.599083 6.54917 0.471222C4.71693 0.17042 3.24019 0.404805 2.16003 1.16788C0.852059 2.09178 0.245722 3.69702 0.357861 5.939C0.393476 6.65082 0.791658 8.8166 1.41861 10.8706C1.77893 12.0511 2.16316 13.0315 2.56062 13.7847C3.12428 14.8528 3.72741 15.4817 4.40449 15.7076C4.78398 15.834 5.4735 15.9226 6.19872 15.3186C6.29064 15.4299 6.41329 15.5405 6.57604 15.6433C6.78275 15.7736 7.03551 15.8802 7.28794 15.9433C8.19765 16.1707 9.04976 16.1138 9.77674 15.795C9.78123 15.9243 9.78468 16.0479 9.78757 16.1546C9.79238 16.3276 9.79719 16.4972 9.80353 16.6559C9.8466 17.7287 9.9196 18.5628 10.1359 19.1465C10.1477 19.1785 10.1637 19.2275 10.1805 19.2794C10.2884 19.6097 10.4688 20.1627 10.9278 20.5958C11.4031 21.0444 11.978 21.182 12.5045 21.182C12.7686 21.182 13.0205 21.1473 13.2415 21.1C14.0292 20.9311 14.9238 20.674 15.571 19.7525C16.1829 18.8814 16.4803 17.5693 16.5341 15.5019C16.5411 15.4435 16.5475 15.3876 16.5537 15.3345L16.5665 15.2252L16.7107 15.2379L16.7478 15.2404C17.5501 15.2769 18.5311 15.1068 19.1336 14.8269C19.6097 14.606 21.1353 13.8006 20.7761 12.7132Z" fill="#313131"/>
<path d="M19.4045 12.9246C17.0189 13.4168 16.8549 12.6091 16.8549 12.6091C19.3736 8.87168 20.4266 4.12759 19.518 2.96649C17.0391 -0.200754 12.748 1.29716 12.6764 1.33598L12.6534 1.34015C12.182 1.24229 11.6546 1.18406 11.0618 1.17435C9.9824 1.15671 9.16357 1.45735 8.54224 1.92852C8.54224 1.92852 0.887424 -1.22501 1.24349 5.89462C1.31922 7.40922 3.4144 17.355 5.91339 14.3509C6.82678 13.2524 7.70938 12.3236 7.70938 12.3236C8.14767 12.6148 8.67242 12.7633 9.22253 12.71L9.26529 12.6737C9.25197 12.8101 9.25807 12.9435 9.28237 13.1014C8.63857 13.8207 8.8278 13.947 7.54085 14.2119C6.23857 14.4803 7.00357 14.9581 7.50307 15.083C8.1086 15.2344 9.50946 15.4489 10.456 14.1238L10.4183 14.275C10.6705 14.4771 10.8476 15.5892 10.8179 16.5974C10.7882 17.6055 10.7684 18.2977 10.9671 18.8383C11.166 19.379 11.364 20.5954 13.0559 20.2329C14.4695 19.93 15.2021 19.1449 15.304 17.8353C15.3763 16.9044 15.54 17.042 15.5503 16.2096L15.6816 15.8156C15.833 14.5536 15.7057 14.1465 16.5765 14.3358L16.7883 14.3545C17.4292 14.3836 18.2683 14.2513 18.7607 14.0225C19.821 13.5304 20.4498 12.7088 19.4043 12.9246H19.4045Z" fill="#313131"/>
<path d="M8.99 6.57184C8.77502 6.54192 8.58034 6.56959 8.48184 6.64419C8.42649 6.68614 8.40933 6.73475 8.40468 6.7682C8.39232 6.85684 8.45441 6.95486 8.49259 7.00539C8.60056 7.14849 8.75826 7.24684 8.91435 7.26849C8.93697 7.2717 8.95951 7.27315 8.98189 7.27315C9.24219 7.27315 9.4789 7.07045 9.49976 6.92085C9.52582 6.73347 9.25382 6.60849 8.99 6.57184ZM16.1117 6.57777C16.0912 6.4309 15.8298 6.38903 15.5818 6.42352C15.3341 6.45801 15.094 6.56983 15.114 6.71702C15.13 6.83149 15.3368 7.02689 15.5814 7.02689C15.6021 7.02689 15.623 7.02553 15.644 7.02256C15.8073 6.99994 15.9271 6.89622 15.9841 6.83646C16.0707 6.74534 16.1209 6.64379 16.1117 6.57777Z" fill="white"/>
<path d="M20.1978 12.8687C20.1068 12.5937 19.814 12.5052 19.3276 12.6056C17.8834 12.9037 17.3661 12.6972 17.1963 12.5722C18.3189 10.862 19.2424 8.79473 19.7406 6.86599C19.9766 5.95235 20.107 5.10385 20.1176 4.41224C20.1294 3.65318 20.0001 3.09537 19.7335 2.75462C18.6585 1.38096 17.0807 0.644114 15.1708 0.6239C13.8577 0.60914 12.7484 0.945156 12.5333 1.03965C12.0804 0.927028 11.5867 0.857884 11.0492 0.84906C10.0635 0.833098 9.21152 1.06909 8.50612 1.55013C8.1997 1.43607 7.40783 1.16422 6.4394 1.0082C4.76518 0.738686 3.43475 0.942911 2.48534 1.6155C1.35248 2.41812 0.829485 3.85283 0.930795 5.87967C0.964886 6.56157 1.35344 8.65933 1.9666 10.6683C2.77371 13.3125 3.65109 14.8093 4.57419 15.1173C4.68224 15.1533 4.80681 15.1785 4.94422 15.1785C5.28096 15.1785 5.69382 15.0267 6.12336 14.5103C6.64728 13.8818 7.18925 13.2685 7.74858 12.6713C8.11146 12.8661 8.51013 12.9748 8.91785 12.9857C8.91866 12.9964 8.9197 13.0071 8.92066 13.0177C8.85048 13.1014 8.78175 13.1863 8.71451 13.2723C8.432 13.631 8.3732 13.7057 7.46382 13.8929C7.20513 13.9463 6.51809 14.0879 6.50799 14.5695C6.49708 15.0957 7.32015 15.3167 7.41392 15.3401C7.74071 15.4219 8.05555 15.4623 8.35579 15.4623C9.08598 15.4623 9.72858 15.2223 10.2421 14.7579C10.2263 16.6338 10.3045 18.4822 10.5298 19.0454C10.7142 19.5065 11.1649 20.6333 12.5884 20.6332C12.7972 20.6332 13.0271 20.6089 13.28 20.5546C14.7657 20.2362 15.4108 19.5796 15.6604 18.1319C15.7939 17.3583 16.0231 15.5109 16.1309 14.5199C16.3584 14.5909 16.6513 14.6234 16.9679 14.6233C17.6282 14.6233 18.3902 14.483 18.868 14.2612C19.4048 14.0119 20.3734 13.4002 20.1978 12.8687ZM16.6599 6.17246C16.655 6.465 16.6147 6.73058 16.572 7.0078C16.5261 7.30596 16.4786 7.61422 16.4666 7.98842C16.4548 8.35259 16.5003 8.7312 16.5443 9.09738C16.6331 9.83695 16.7244 10.5983 16.3713 11.3496C16.3127 11.2457 16.2605 11.1383 16.2149 11.028C16.171 10.9217 16.0757 10.7508 15.9438 10.5144C15.4305 9.59382 14.2285 7.43815 14.8438 6.55853C15.0271 6.29671 15.4923 6.02751 16.6599 6.17246ZM15.2446 1.21628C16.9558 1.25406 18.3095 1.89425 19.2679 3.11895C20.003 4.05834 19.1936 8.3327 16.8503 12.0202C16.8267 11.9902 16.803 11.9604 16.7792 11.9306L16.7495 11.8936C17.3551 10.8935 17.2367 9.90409 17.1313 9.02687C17.088 8.66687 17.0471 8.32684 17.0575 8.00743C17.0682 7.66893 17.113 7.37855 17.1563 7.0978C17.2095 6.75184 17.2636 6.39385 17.2487 5.97184C17.2599 5.92756 17.2644 5.87526 17.2585 5.81318C17.2204 5.4085 16.7584 4.19735 15.8167 3.10115C15.3015 2.50155 14.5503 1.83056 13.5246 1.37799C13.9658 1.28655 14.5691 1.20128 15.2446 1.21628ZM5.66879 14.1323C5.19553 14.7014 4.86874 14.5923 4.76125 14.5565C4.06098 14.3229 3.24842 12.8428 2.53203 10.4957C1.91213 8.46489 1.54989 6.42272 1.52117 5.85008C1.43069 4.03901 1.8697 2.77684 2.82609 2.09855C4.38256 0.994809 6.94154 1.65545 7.96981 1.9905C7.95505 2.0051 7.93965 2.01874 7.92505 2.03358C6.23767 3.73764 6.27769 6.64909 6.28186 6.82708C6.2817 6.89574 6.28748 6.99296 6.29534 7.12668C6.32438 7.61639 6.37844 8.52778 6.23406 9.55989C6.09994 10.519 6.39561 11.4578 7.0451 12.1355C7.11176 12.2049 7.18182 12.271 7.25502 12.3334C6.96593 12.6431 6.33761 13.3278 5.66879 14.1323ZM7.47192 11.7265C6.94844 11.1802 6.71069 10.4204 6.81954 9.64171C6.97194 8.55144 6.91572 7.60187 6.88547 7.09171C6.88122 7.02032 6.87745 6.95775 6.87529 6.90842C7.12178 6.68984 8.26411 6.0778 9.07876 6.26446C9.45047 6.34957 9.677 6.60272 9.77117 7.03812C10.2585 9.29238 9.83566 10.2319 9.49588 10.987C9.42585 11.1425 9.35967 11.2895 9.3032 11.4416L9.2594 11.5592C9.14855 11.8565 9.04539 12.1329 8.98146 12.3954C8.42494 12.3938 7.88358 12.156 7.47192 11.7264V11.7265ZM7.55735 14.7666C7.39483 14.726 7.24868 14.6555 7.16293 14.597C7.23457 14.5633 7.36203 14.5174 7.58309 14.4719C8.65291 14.2517 8.81815 14.0962 9.17895 13.6381C9.26165 13.533 9.35542 13.414 9.48529 13.269L9.48545 13.2688C9.67884 13.0522 9.76732 13.089 9.92775 13.1556C10.0578 13.2093 10.1844 13.3723 10.2358 13.5517C10.2601 13.6364 10.2873 13.7971 10.1981 13.9222C9.44438 14.9775 8.34609 14.964 7.55735 14.7666ZM13.1562 19.9766C11.8474 20.2571 11.384 19.5893 11.0787 18.8259C10.8816 18.333 10.7847 16.1106 10.8534 13.6563C10.8543 13.6237 10.8496 13.5922 10.8407 13.5625C10.8326 13.5039 10.8204 13.4459 10.8041 13.3891C10.7019 13.0319 10.4528 12.7332 10.154 12.6094C10.0353 12.5602 9.81745 12.47 9.55563 12.5369C9.61146 12.3069 9.70828 12.0471 9.81328 11.7658L9.85732 11.6475C9.90689 11.5141 9.96914 11.3759 10.0349 11.2295C10.3905 10.4396 10.8775 9.35759 10.3489 6.91323C10.151 5.99767 9.48986 5.55056 8.48767 5.65443C7.88686 5.7166 7.33716 5.95901 7.06299 6.09802C7.00403 6.12786 6.95013 6.15673 6.89975 6.18481C6.97628 5.26235 7.26537 3.53839 8.34681 2.44764C9.02775 1.76101 9.93457 1.42187 11.0394 1.44016C13.2164 1.47577 14.6125 2.59299 15.4003 3.52403C16.0793 4.32625 16.4469 5.13441 16.5936 5.57029C15.4903 5.45807 14.7399 5.67585 14.3595 6.2197C13.5319 7.4027 14.8122 9.69874 15.4275 10.8022C15.5404 11.0045 15.6378 11.1792 15.6684 11.2535C15.8688 11.7391 16.1282 12.0634 16.3176 12.3C16.3757 12.3725 16.432 12.4429 16.4748 12.5043C16.1406 12.6006 15.5404 12.8232 15.5951 13.9359C15.551 14.4942 15.2373 17.108 15.0779 18.0315C14.8675 19.2516 14.4185 19.706 13.1562 19.9767V19.9766ZM18.6191 13.7251C18.2774 13.8837 17.7055 14.0026 17.1623 14.0282C16.5623 14.0563 16.2569 13.961 16.185 13.9023C16.1513 13.209 16.4094 13.1365 16.6825 13.0599C16.7254 13.0478 16.7673 13.036 16.8077 13.0219C16.8328 13.0424 16.8603 13.0627 16.8905 13.0826C17.3727 13.4009 18.2329 13.4352 19.4472 13.1845L19.4605 13.1819C19.2967 13.335 19.0165 13.5405 18.6191 13.7251Z" fill="white"/>
</g>
<defs>
<clipPath id="clip0_539_161">
<rect width="21.1765" height="21.1765" fill="white" transform="translate(0 0.0324554)"/>
</clipPath>
</defs>
</svg>
