<svg width="26" height="22" viewBox="0 0 26 22" fill="none" xmlns="http://www.w3.org/2000/svg">
<path d="M21.2422 7.60083C20.9762 7.51575 20.7103 7.4354 20.4443 7.35977C20.4886 7.18489 20.528 7.01 20.5674 6.83511C21.1733 4.01804 20.7743 1.75398 19.4296 1.00717C18.1342 0.293447 16.0212 1.03553 13.8835 2.8222C13.6717 2.99708 13.4649 3.18142 13.2678 3.36576C13.1348 3.24287 12.9969 3.11998 12.859 3.00181C10.6179 1.09225 8.3719 0.288721 7.02724 1.04026C5.73676 1.75871 5.35257 3.89042 5.89437 6.55624C5.94855 6.82094 6.00766 7.0809 6.07662 7.34559C5.76139 7.43067 5.45108 7.5252 5.16048 7.62446C2.53026 8.49889 0.643799 9.87907 0.643799 11.3065C0.643799 12.7812 2.6534 14.2607 5.38705 15.1587C5.6087 15.2296 5.83034 15.3005 6.05692 15.362C5.98303 15.6456 5.919 15.9244 5.8599 16.2128C5.34272 18.8361 5.74661 20.9158 7.03709 21.6295C8.36697 22.3668 10.6031 21.6106 12.7802 19.7814C12.9526 19.6349 13.125 19.4836 13.2974 19.3229C13.5141 19.5261 13.7407 19.7199 13.9673 19.909C16.0754 21.6484 18.1588 22.3527 19.4444 21.6389C20.7743 20.9016 21.2077 18.6659 20.6462 15.9433C20.6019 15.7354 20.5526 15.5227 20.4985 15.3053C20.6561 15.2627 20.8088 15.2154 20.9615 15.1682C23.8035 14.2654 25.8623 12.8049 25.8623 11.3065C25.8623 9.87434 23.9217 8.48471 21.2422 7.60083ZM14.578 3.58791C16.4103 2.05648 18.1194 1.4562 18.8977 1.88632C19.7301 2.34481 20.0502 4.19765 19.5281 6.63187C19.4937 6.79258 19.4592 6.94855 19.4149 7.10453C18.3214 6.8682 17.2132 6.69804 16.1 6.60351C15.4597 5.72436 14.7603 4.88301 14.0017 4.09366C14.1938 3.91878 14.381 3.75335 14.578 3.58791ZM8.87922 13.7596C9.13042 14.1709 9.38655 14.5821 9.65745 14.9838C8.88907 14.9035 8.12562 14.7853 7.37202 14.6293C7.58874 13.9487 7.85964 13.2444 8.17488 12.526C8.40145 12.9419 8.63295 13.3531 8.87922 13.7596ZM7.3868 8.07349C8.09607 7.92224 8.84967 7.79935 9.63282 7.70482C9.37177 8.09713 9.11565 8.49889 8.8743 8.90538C8.63295 9.30715 8.39652 9.71836 8.17488 10.1343C7.86457 9.43004 7.60352 8.73995 7.3868 8.07349ZM8.73638 11.3301C9.06147 10.6779 9.4161 10.0398 9.79044 9.41113C10.1648 8.78249 10.5687 8.17275 10.9923 7.57247C11.7311 7.52048 12.4847 7.49212 13.2531 7.49212C14.0214 7.49212 14.78 7.52048 15.5139 7.57247C15.9325 8.16803 16.3315 8.77776 16.7108 9.40168C17.09 10.0256 17.4447 10.6637 17.7796 11.3112C17.4496 11.9635 17.0949 12.6063 16.7157 13.2397C16.3413 13.8684 15.9424 14.4781 15.5237 15.0831C14.7898 15.1351 14.0264 15.1587 13.2531 15.1587C12.4798 15.1587 11.7311 15.1351 11.007 15.0926C10.5785 14.4923 10.1746 13.8778 9.79536 13.2492C9.4161 12.6205 9.06639 11.9824 8.73638 11.3301ZM17.6318 13.7502C17.883 13.3342 18.1194 12.9136 18.3509 12.4882C18.6662 13.1735 18.942 13.8684 19.1834 14.5821C18.4199 14.7475 17.6466 14.8751 16.8684 14.9602C17.1343 14.5632 17.3855 14.1567 17.6318 13.7502ZM18.3411 10.1343C18.1096 9.71836 17.8732 9.30242 17.6269 8.89593C17.3855 8.49417 17.1343 8.09713 16.8733 7.70482C17.6663 7.79935 18.4248 7.92697 19.1341 8.08295C18.9075 8.78249 18.6415 9.46313 18.3411 10.1343ZM13.2629 4.81684C13.7801 5.35568 14.2677 5.92287 14.7209 6.50898C13.7456 6.46644 12.7654 6.46644 11.7902 6.50898C12.2729 5.89924 12.7704 5.33204 13.2629 4.81684ZM7.54934 1.91941C8.37682 1.4562 10.214 2.11793 12.1497 3.7628C12.2729 3.86679 12.396 3.98023 12.5241 4.09366C11.7606 4.88301 11.0563 5.72436 10.4111 6.60351C9.29789 6.69804 8.19458 6.86347 7.10112 7.09508C7.03709 6.85402 6.98291 6.60824 6.92873 6.36245C6.46573 4.07476 6.77111 2.34953 7.54934 1.91941ZM6.34259 14.3788C6.13572 14.3221 5.93378 14.2607 5.73183 14.1945C4.6827 13.8778 3.49073 13.3768 2.62877 12.7198C2.1313 12.3889 1.79636 11.8784 1.70278 11.3065C1.70278 10.4415 3.25924 9.33551 5.50526 8.58397C5.78601 8.48944 6.07169 8.40436 6.35737 8.32401C6.6923 9.34969 7.09619 10.3565 7.56412 11.3301C7.09127 12.318 6.68245 13.339 6.34259 14.3788ZM12.0857 19.0109C11.273 19.7247 10.3322 20.2919 9.30774 20.6794C8.76101 20.93 8.13055 20.9536 7.56904 20.7409C6.78589 20.306 6.46081 18.6375 6.9041 16.3924C6.95828 16.1277 7.01739 15.863 7.08634 15.603C8.18965 15.8299 9.30281 15.9859 10.4308 16.0662C11.0809 16.9501 11.7951 17.7962 12.5586 18.5903C12.4009 18.7368 12.2433 18.8786 12.0857 19.0109ZM13.2925 17.8624C12.7901 17.3424 12.2877 16.7658 11.8 16.1466C12.2729 16.1655 12.7605 16.175 13.2531 16.175C13.7604 16.175 14.2579 16.1655 14.7504 16.1419C14.2973 16.7421 13.8096 17.3141 13.2925 17.8624ZM19.7301 19.2804C19.6858 19.857 19.3902 20.3958 18.9174 20.7598C18.1342 21.1946 16.4645 20.6274 14.6618 19.1433C14.4549 18.9731 14.248 18.7888 14.0362 18.5997C14.7898 17.8009 15.4843 16.9548 16.1148 16.0662C17.2427 15.9764 18.3657 15.811 19.474 15.5699C19.5232 15.7637 19.5675 15.9575 19.6069 16.1466C19.8483 17.1675 19.8877 18.231 19.7301 19.2804ZM20.6265 14.1992C20.4886 14.2418 20.3507 14.2843 20.2079 14.3221C19.8631 13.2917 19.4395 12.2849 18.9519 11.3065C19.4247 10.3423 19.8237 9.34969 20.1586 8.33346C20.4147 8.40436 20.661 8.47998 20.8974 8.55561C23.1927 9.31187 24.8033 10.4368 24.8033 11.2971C24.8033 12.2235 23.0843 13.4193 20.6265 14.1992ZM13.2531 13.4902C14.4992 13.4902 15.5089 12.5213 15.5089 11.3254C15.5089 10.1296 14.4992 9.16062 13.2531 9.16062C12.0069 9.16062 10.9972 10.1296 10.9972 11.3254C10.9972 12.5213 12.0069 13.4902 13.2531 13.4902Z" fill="black"/>
</svg>
