<svg width="71" height="16" viewBox="0 0 71 16" fill="none" xmlns="http://www.w3.org/2000/svg">
<g clip-path="url(#clip0_701_31)">
<path d="M52.898 5.91795V14.9086H50.0017V4.51001L52.898 5.91795Z" fill="#7F7F7F"/>
<path d="M11.907 13.2392L14.0793 15.1299L23.2308 10.363L22.2855 8.09018L11.907 13.2392ZM50.0015 7.44661L57.3631 3.62509L56.1161 1.4729L50.0017 4.51009L50.0015 7.44661Z" fill="#757575"/>
<path d="M29.2849 5.21411V14.9087H26.5093V1.09084L29.2849 5.21411ZM11.907 13.239L14.0793 15.1297L18.2629 4.67079L16.9153 1.0907L11.907 13.239Z" fill="#7F7F7F"/>
<path d="M16.9152 1.09084H19.7714L25.0612 14.9087H22.1246L16.9152 1.09084ZM29.7074 1.09084L35.8017 10.5239V14.9085L26.5093 1.0907H29.7074V1.09084ZM41.0312 1.09084H43.9072V14.9087H41.0312V1.09084ZM50.0017 3.62507H45.5767V1.09084H55.8949L57.3631 3.62507H50.0017Z" fill="black"/>
<path d="M65.8711 9.65906V14.9086H63.015V9.65906" fill="#757575"/>
<path d="M67.8422 1.09082L63.015 9.65908H65.8711L70.8794 1.09082H67.8422Z" fill="black"/>
<path d="M63.015 9.65908L58.027 1.09082H61.1646L64.5235 6.96385L63.015 9.65908Z" fill="#7F7F7F"/>
<path d="M1.18678 2.69985C1.18678 4.61074 2.37339 5.75701 4.74676 6.36051L7.26088 6.94376C9.51361 7.46669 10.8813 8.75398 10.8813 10.8457C10.9014 11.7508 10.5998 12.6358 10.0566 13.3598C10.0566 11.2681 8.97057 10.1418 6.37588 9.45788L3.90197 8.89487C1.91092 8.45209 0.382202 7.38598 0.382202 5.11329C0.382202 4.24839 0.663706 3.3835 1.18678 2.69971" fill="black"/>
<path d="M35.8017 9.81994V1.09083H38.5773V14.9086H35.8017V9.81994ZM8.50788 10.3228C9.57385 11.0067 10.0566 11.9721 10.0566 13.36C9.15146 14.5064 7.60277 15.1298 5.77244 15.1298C2.69517 15.1298 0.502909 13.6012 0.0401611 10.9665H2.99678C3.37896 12.1732 4.38461 12.7364 5.75233 12.7364C7.38159 12.7565 8.48777 11.8715 8.50788 10.3228ZM1.1867 2.67973C2.05146 1.55344 3.53996 0.869507 5.34991 0.869507C8.50774 0.869507 10.318 2.53898 10.7806 4.87213H7.92463C7.60291 3.94691 6.8183 3.22277 5.39026 3.22277C3.84157 3.24288 2.79571 4.12788 2.73539 5.53582C1.69895 4.96421 1.14635 3.84624 1.1867 2.67973Z" fill="#7F7F7F"/>
</g>
<defs>
<clipPath id="clip0_701_31">
<rect width="71" height="14.4219" fill="white" transform="translate(0 0.789062)"/>
</clipPath>
</defs>
</svg>
