<svg width="24" height="22" viewBox="0 0 24 22" fill="none" xmlns="http://www.w3.org/2000/svg">
<g clip-path="url(#clip0_529_241)">
<path d="M20.9336 0.150116H3.02517C1.82485 0.150116 0.851807 1.076 0.851807 2.21813V19.2586C0.851807 20.4007 1.82485 21.3266 3.02517 21.3266H20.9336C22.134 21.3266 23.107 20.4007 23.107 19.2586V2.21813C23.107 1.076 22.134 0.150116 20.9336 0.150116Z" fill="black"/>
<path d="M20.9336 0.150116H3.02517C1.82485 0.150116 0.851807 1.076 0.851807 2.21813V19.2586C0.851807 20.4007 1.82485 21.3266 3.02517 21.3266H20.9336C22.134 21.3266 23.107 20.4007 23.107 19.2586V2.21813C23.107 1.076 22.134 0.150116 20.9336 0.150116Z" fill="black"/>
<path fill-rule="evenodd" clip-rule="evenodd" d="M14.628 17.0013V19.0719C14.9818 19.2444 15.4001 19.3738 15.8831 19.4601C16.3662 19.5464 16.8752 19.5895 17.4104 19.5895C17.9319 19.5895 18.4274 19.5421 18.8968 19.4471C19.3662 19.3523 19.7778 19.1959 20.1315 18.978C20.4852 18.7602 20.7653 18.4755 20.9716 18.1239C21.178 17.7724 21.2812 17.3378 21.2812 16.8202C21.2812 16.4449 21.2222 16.116 21.1043 15.8334C20.9864 15.5509 20.8163 15.2997 20.5941 15.0797C20.3719 14.8597 20.1054 14.6623 19.7948 14.4876C19.4841 14.3129 19.1338 14.1479 18.7437 13.9926C18.458 13.8805 18.2018 13.7716 17.975 13.6659C17.7482 13.5602 17.5555 13.4523 17.3968 13.3424C17.238 13.2323 17.1156 13.1159 17.0294 12.9929C16.9433 12.87 16.9001 12.7309 16.9001 12.5756C16.9001 12.4333 16.9387 12.3049 17.0158 12.1906C17.0929 12.0763 17.2018 11.9782 17.3423 11.8962C17.483 11.8143 17.6553 11.7506 17.8593 11.7053C18.0635 11.66 18.2902 11.6374 18.5396 11.6374C18.721 11.6374 18.9126 11.6504 19.1145 11.6762C19.3163 11.7021 19.5192 11.742 19.7233 11.7959C19.9274 11.8498 20.1258 11.9178 20.3186 11.9997C20.5113 12.0817 20.6893 12.1766 20.8526 12.2844V10.3498C20.5215 10.229 20.1598 10.1395 19.7675 10.0813C19.3753 10.023 18.9251 9.99391 18.4172 9.99391C17.9002 9.99391 17.4104 10.0468 16.9478 10.1524C16.4852 10.2581 16.0782 10.4231 15.7267 10.6474C15.3752 10.8717 15.0974 11.1575 14.8934 11.5048C14.6893 11.852 14.5872 12.2672 14.5872 12.7503C14.5872 13.3671 14.7743 13.8934 15.1485 14.3291C15.5226 14.7647 16.0906 15.1335 16.8526 15.4355C17.1519 15.552 17.4308 15.6663 17.6893 15.7784C17.9478 15.8906 18.1712 16.0071 18.3593 16.1278C18.5476 16.2486 18.6961 16.3802 18.805 16.5226C18.9138 16.6649 18.9682 16.8266 18.9682 17.0078C18.9682 17.1415 18.9342 17.2655 18.8662 17.3799C18.7981 17.4942 18.695 17.5934 18.5566 17.6775C18.4183 17.7616 18.246 17.8274 18.0396 17.8748C17.8333 17.9223 17.5918 17.946 17.3151 17.946C16.8435 17.946 16.3764 17.8673 15.9137 17.7098C15.4512 17.5524 15.0226 17.3163 14.628 17.0013ZM10.9699 11.8999H13.7613V10.2007H5.98071V11.8999H8.75853V19.4654H10.9699V11.8999Z" fill="white"/>
</g>
<defs>
<clipPath id="clip0_529_241">
<rect width="22.2552" height="21.1765" fill="white" transform="translate(0.851807 0.150116)"/>
</clipPath>
</defs>
</svg>
