<svg width="22" height="21" viewBox="0 0 22 21" fill="none" xmlns="http://www.w3.org/2000/svg">
<path d="M2.67429 7.03035L7.02348 18.4615C3.98119 17.047 1.88587 14.0535 1.88587 10.5913C1.88587 9.32069 2.16867 8.12001 2.67429 7.03035ZM17.153 10.1513C17.153 9.06987 16.7502 8.3215 16.4032 7.7376C15.9404 7.01802 15.5076 6.40534 15.5076 5.68575C15.5076 4.87982 16.1418 4.13145 17.0373 4.13145C17.0759 4.13145 17.1145 4.13556 17.1573 4.13967C15.5333 2.71283 13.3737 1.8411 10.9999 1.8411C7.81619 1.8411 5.01385 3.40775 3.3813 5.78444C3.59555 5.79266 3.79694 5.79677 3.96834 5.79677C4.91959 5.79677 6.39788 5.68575 6.39788 5.68575C6.89065 5.65697 6.94635 6.35188 6.45787 6.40534C6.45787 6.40534 5.96511 6.45879 5.41664 6.48758L8.73745 15.9614L10.7342 10.2212L9.31591 6.48758C8.82314 6.45879 8.36037 6.40534 8.36037 6.40534C7.86761 6.37656 7.9276 5.65697 8.41608 5.68575C8.41608 5.68575 9.92008 5.79677 10.8156 5.79677C11.7669 5.79677 13.2452 5.68575 13.2452 5.68575C13.7379 5.65697 13.7936 6.35188 13.3052 6.40534C13.3052 6.40534 12.8124 6.45879 12.2639 6.48758L15.559 15.8915L16.4674 12.9762C16.8531 11.7673 17.153 10.8997 17.153 10.1513ZM11.1584 11.3561L8.42465 18.9837C9.24307 19.214 10.1043 19.3414 10.9999 19.3414C12.0625 19.3414 13.0781 19.1646 14.025 18.8439C13.9993 18.8069 13.9779 18.7658 13.9608 18.7247L11.1584 11.3561ZM18.9998 6.393C19.0384 6.67261 19.0598 6.96867 19.0598 7.29351C19.0598 8.18169 18.8884 9.17677 18.3657 10.4268L15.5805 18.1531C18.2928 16.6358 20.1139 13.8191 20.1139 10.5913C20.1139 9.06987 19.7111 7.63892 18.9998 6.393ZM21.6265 10.5913C21.6265 16.2164 16.8574 20.7888 10.9999 20.7888C5.13812 20.7888 0.373291 16.2123 0.373291 10.5913C0.373291 4.96617 5.13812 0.393707 10.9999 0.393707C16.8574 0.393707 21.6265 4.96617 21.6265 10.5913ZM21.138 10.5913C21.138 5.22522 16.5874 0.862467 10.9999 0.862467C5.40807 0.862467 0.861771 5.22522 0.861771 10.5913C0.861771 15.9573 5.41235 20.3201 10.9999 20.3201C16.5917 20.3201 21.138 15.9573 21.138 10.5913Z" fill="black"/>
</svg>
